#!OML:ASF H:\Pregnant\Project 1\Capture day 1\Session 1\femalepreg.ASF
:FULLY-SPECIFIED
:DEGREES
290
root 7.53153 15.7681 24.8886 26.9006 -83.3129 -10.4255
lowerback -21.2293 1.33681 -0.970318
upperback -6.42529 1.62655 -1.2715
thorax 4.87537 0.618948 -0.420744
lowerneck -21.078 2.7946 3.81002
upperneck 25.3811 1.0842 4.42177
head 11.8599 1.36315 1.17184
rclavicle -3.68249e-014 2.38542e-015
rhumerus -31.3515 3.73358 -64.055
rradius 94.0768
rwrist 7.25821
rhand -46.8756 -1.17229
rfingers 7.12502
rthumb -19.5877 -30.2055
lclavicle -3.68249e-014 2.38542e-015
lhumerus -40.5521 -16.9531 91.1072
lradius 29.5222
lwrist 40.5879
lhand -27.5516 -4.70537
lfingers 7.12502
lthumb -0.95283 25.2722
rfemur -23.5049 20.7147 13.6784
rtibia 25.2204
rfoot -14.6436 -22.2828
rtoes -6.74629
lfemur 0 0 0
ltibia 0
lfoot 0 0
ltoes 0
291
root 7.53186 15.7681 24.8857 26.9886 -83.2992 -10.5224
lowerback -21.2285 1.35121 -1.01119
upperback -6.41511 1.6551 -1.27404
thorax 4.88479 0.633276 -0.393037
lowerneck -21.0637 2.81327 3.78424
upperneck 25.3578 1.12181 4.42648
head 11.8472 1.37796 1.18332
rclavicle -1.76421e-014 1.11319e-014
rhumerus -32.1435 4.28725 -65.1778
rradius 91.7071
rwrist 6.85451
rhand -45.0859 -1.77926
rfingers 7.12502
rthumb -17.8663 -30.9786
lclavicle -1.76421e-014 1.11319e-014
lhumerus -40.4565 -16.8162 91.044
lradius 29.4667
lwrist 40.5023
lhand -27.5434 -4.72166
lfingers 7.12502
lthumb -0.944885 25.256
rfemur -23.4859 20.72 13.7075
rtibia 25.203
rfoot -14.6487 -22.2838
rtoes -6.68198
lfemur 0 0 0
ltibia 0
lfoot 0 0
ltoes 0
292
root 7.53222 15.768 24.8827 27.0885 -83.2812 -10.6327
lowerback -21.2264 1.36408 -1.05265
upperback -6.40173 1.68183 -1.27225
thorax 4.89682 0.64684 -0.360785
lowerneck -21.0596 2.83643 3.7659
upperneck 25.3382 1.1682 4.41276
head 11.838 1.39528 1.18838
rclavicle -2.2413e-014 2.06736e-014
rhumerus -32.8828 4.72408 -66.2715
rradius 89.2974
rwrist 6.28246
rhand -42.7122 -2.60277
rfingers 7.12502
rthumb -15.5812 -31.9952
lclavicle -2.2413e-014 2.06736e-014
lhumerus -40.3776 -16.7168 91.0037
lradius 29.4476
lwrist 40.472
lhand -27.5528 -4.7274
lfingers 7.12502
lthumb -0.954029 25.2502
rfemur -23.4643 20.7308 13.7402
rtibia 25.1849
rfoot -14.6515 -22.2933
rtoes -6.62743
lfemur 0 0 0
ltibia 0
lfoot 0 0
ltoes 0
293
root 7.53266 15.7678 24.8797 27.1916 -83.2591 -10.747
lowerback -21.2219 1.38013 -1.09314
upperback -6.38569 1.71281 -1.27061
thorax 4.9105 0.662573 -0.328199
lowerneck -21.0618 2.85985 3.75406
upperneck 25.3163 1.21705 4.38453
head 11.8292 1.41257 1.18741
rclavicle 1.27719e-014 1.98785e-014
rhumerus -33.5747 5.02971 -67.316
rradius 86.8695
rwrist 5.68015
rhand -39.7001 -3.61304
rfingers 7.12502
rthumb -12.6787 -33.2082
lclavicle 1.27719e-014 1.98785e-014
lhumerus -40.2908 -16.6062 90.9548
lradius 29.435
lwrist 40.4295
lhand -27.5569 -4.73367
lfingers 7.12502
lthumb -0.957951 25.2439
rfemur -23.4408 20.7391 13.7755
rtibia 25.1658
rfoot -14.6545 -22.3021
rtoes -6.56969
lfemur 0 0 0
ltibia 0
lfoot 0 0
ltoes 0
294
root 7.53318 15.7677 24.8767 27.2995 -83.2312 -10.8675
lowerback -21.2157 1.39557 -1.13384
upperback -6.36529 1.74329 -1.26573
thorax 4.92782 0.678206 -0.292111
lowerneck -21.0776 2.87991 3.72225
upperneck 25.2937 1.26596 4.362
head 11.8225 1.42893 1.19215
rclavicle 9.83984e-015 0
rhumerus -34.2087 5.22199 -68.3019
rradius 84.4431
rwrist 5.18184
rhand -36.0376 -4.78191
rfingers 7.12502
rthumb -9.14607 -34.5636
lclavicle 9.83984e-015 0
lhumerus -40.2151 -16.5301 90.9226
lradius 29.4557
lwrist 40.4325
lhand -27.5599 -4.73075
lfingers 7.12502
lthumb -0.960818 25.2468
rfemur -23.4143 20.7473 13.8138
rtibia 25.1452
rfoot -14.6595 -22.3121
rtoes -6.50781
lfemur 0 0 0
ltibia 0
lfoot 0 0
ltoes 0
295
root 7.53375 15.7675 24.8737 27.4113 -83.2009 -10.9929
lowerback -21.2081 1.41228 -1.17431
upperback -6.34026 1.77564 -1.25786
thorax 4.94933 0.694884 -0.252465
lowerneck -21.1046 2.90009 3.68466
upperneck 25.2671 1.31931 4.33195
head 11.8163 1.44594 1.19591
rclavicle -2.62893e-014 0
rhumerus -34.7812 5.29045 -69.2156
rradius 82.0188
rwrist 4.97175
rhand -31.6951 -6.08566
rfingers 7.12502
rthumb -4.95437 -36.0077
lclavicle -2.62893e-014 0
lhumerus -40.1235 -16.4232 90.8752
lradius 29.4728
lwrist 40.4009
lhand -27.5543 -4.73583
lfingers 7.12502
lthumb -0.955457 25.2418
rfemur -23.3854 20.7519 13.8545
rtibia 25.1222
rfoot -14.6649 -22.3199
rtoes -6.43883
lfemur 0 0 0
ltibia 0
lfoot 0 0
ltoes 0
296
root 7.53434 15.7673 24.8707 27.5352 -83.1667 -11.1323
lowerback -21.1994 1.42568 -1.21479
upperback -6.30904 1.80372 -1.24129
thorax 4.97655 0.709655 -0.204478
lowerneck -21.1436 2.92508 3.64185
upperneck 25.2365 1.38561 4.28782
head 11.8106 1.46665 1.19756
rclavicle 1.3418e-014 -2.54444e-014
rhumerus -35.2776 5.23679 -70.0411
rradius 79.5744
rwrist 5.22866
rhand -26.6875 -7.3672
rfingers 7.12502
rthumb -0.11822 -37.3469
lclavicle 1.3418e-014 -2.54444e-014
lhumerus -40.0511 -16.3622 90.8596
lradius 29.5326
lwrist 40.428
lhand -27.5612 -4.72851
lfingers 7.12502
lthumb -0.962091 25.2491
rfemur -23.3526 20.7453 13.9016
rtibia 25.0968
rfoot -14.6642 -22.3216
rtoes -6.39119
lfemur 0 0 0
ltibia 0
lfoot 0 0
ltoes 0
297
root 7.53485 15.7671 24.8677 27.6678 -83.1286 -11.2818
lowerback -21.1927 1.43562 -1.25618
upperback -6.27034 1.82759 -1.21541
thorax 5.01252 0.722518 -0.146915
lowerneck -21.1942 2.95508 3.59212
upperneck 25.1991 1.4656 4.23077
head 11.8043 1.49133 1.19787
rclavicle 1.36167e-014 5.56597e-015
rhumerus -35.6937 5.07893 -70.782
rradius 77.0884
rwrist 6.01504
rhand -21.1719 -8.52655
rfingers 7.12502
rthumb 5.20834 -38.4425
lclavicle 1.36167e-014 5.56597e-015
lhumerus -39.9785 -16.2975 90.8512
lradius 29.6082
lwrist 40.4473
lhand -27.5729 -4.72408
lfingers 7.12502
lthumb -0.973372 25.2534
rfemur -23.3153 20.7242 13.9555
rtibia 25.0693
rfoot -14.6617 -22.3135
rtoes -6.34316
lfemur 0 0 0
ltibia 0
lfoot 0 0
ltoes 0
